PathFileType	4	(X/Y/Z)	/Users/itak/Documents/Research/Walk-IL/dataset/trc/00247_00009.trc
DataRate	CameraRate	NumFrames	NumMarkers	Units	OrigDataRate	OrigDataStartFrame	OrigNumFrames
100.000000	100.000000	4	53	mm	100.000000	299	598
Frame#	Time	RPSI			LPSI			L3			STRN			T10			C7			CLAV			RBAK			LBAK			LSHO			LUPA			LAEL			LAOL			LWTS			LWPS			LFRA			LIFD			LHPS			LHTS			RSHO			RUPA			RAEL			RAOL			RWTS			RWPS			RFRA			RIFD			RHTS			RHPS			RBHD			LFHD			RFHD			LBHD			LHIP			RHIP			RASI			LASI			LKNE			LTHI			LANK			LTIP			LTOE			LMT1			LMT5			LHEE			RKNE			RTHI			RANK			RTIP			RTOE			RMT1			RMT5			RHEE			
		X1	Y1	Z1	X2	Y2	Z2	X3	Y3	Z3	X4	Y4	Z4	X5	Y5	Z5	X6	Y6	Z6	X7	Y7	Z7	X8	Y8	Z8	X9	Y9	Z9	X10	Y10	Z10	X11	Y11	Z11	X12	Y12	Z12	X13	Y13	Z13	X14	Y14	Z14	X15	Y15	Z15	X16	Y16	Z16	X17	Y17	Z17	X18	Y18	Z18	X19	Y19	Z19	X20	Y20	Z20	X21	Y21	Z21	X22	Y22	Z22	X23	Y23	Z23	X24	Y24	Z24	X25	Y25	Z25	X26	Y26	Z26	X27	Y27	Z27	X28	Y28	Z28	X29	Y29	Z29	X30	Y30	Z30	X31	Y31	Z31	X32	Y32	Z32	X33	Y33	Z33	X34	Y34	Z34	X35	Y35	Z35	X36	Y36	Z36	X37	Y37	Z37	X38	Y38	Z38	X39	Y39	Z39	X40	Y40	Z40	X41	Y41	Z41	X42	Y42	Z42	X43	Y43	Z43	X44	Y44	Z44	X45	Y45	Z45	X46	Y46	Z46	X47	Y47	Z47	X48	Y48	Z48	X49	Y49	Z49	X50	Y50	Z50	X51	Y51	Z51	X52	Y52	Z52	X53	Y53	Z53	

300	2.99	-958.1487426757812	1025.272705078125	-264.4947509765625	-905.5916748046875	1039.064331054688	-370.3654174804688	-924.147216796875	1124.055786132812	-336.07861328125	-693.0364990234375	1289.47607421875	-214.5297088623047	-918.7525024414062	1250.876220703125	-331.756591796875	-844.9569091796875	1506.238037109375	-295.6234741210938	-708.5208740234375	1409.251220703125	-218.1681671142578	-955.9524536132812	1373.509765625	-275.1117553710938	-810.2986450195312	1473.041748046875	-405.684814453125	-706.3678588867188	1466.957763671875	-405.8733215332031	-683.613037109375	1355.74951171875	-491.5572509765625	-619.3278198242188	1154.58544921875	-505.3744812011719	-699.6552124023438	1119.4873046875	-515.0396118164062	-535.8895263671875	969.1378173828125	-350.7376098632812	-489.9951171875	947.3466186523438	-420.2031860351562	-566.0274658203125	1062.317504882812	-479.3420715332031	-468.5643615722656	796.69287109375	-303.2441101074219	-452.3445739746094	875.632568359375	-381.7875671386719	-464.9782409667969	893.9254150390625	-316.6458435058594	-880.2282104492188	1459.182250976562	-120.7950439453125	-933.6182861328125	1394.073608398438	-75.67733764648438	-987.4788818359375	1113.35693359375	-80.01175689697266	-953.1888427734375	1109.7578125	-168.6283569335938	-846.4532470703125	908.4523315429688	-15.42628479003906	-927.965087890625	887.69580078125	-6.196788787841797	-974.5355224609375	1044.701293945312	-54.04964447021484	-815.3648681640625	717.8915405273438	-6.845560073852539	-819.7507934570312	790.0650634765625	25.55849838256836	-892.9324340820312	784.8511352539062	25.61623001098633	-812.1229858398438	1664.289916992188	-230.0560760498047	-591.6445922851562	1671.050903320312	-176.3987426757812	-654.1246948242188	1669.83056640625	-98.22750091552734	-693.8486938476562	1663.609008789062	-305.5752563476562	-755.336181640625	983.9456787109375	-459.8197326660156	-911.9906005859375	984.1819458007812	-127.8881454467773	-810.2131958007812	1027.9560546875	-119.5306549072266	-683.564697265625	1020.402709960938	-371.7088317871094	-788.9812622070312	499.8505859375	-408.7311706542969	-764.7747802734375	643.0928955078125	-433.3997497558594	-929.6368408203125	36.66714859008789	-412.4403076171875	-863.3597412109375	280.2366027832031	-423.8279113769531	-733.2965087890625	44.74261474609375	-306.9036560058594	-810.8164672851562	40.78015518188477	-281.7249755859375	-800.99951171875	36.19626617431641	-400.1529235839844	-1001.80517578125	44.55732345581055	-376.9351501464844	-719.34375	533.2149658203125	-55.6513786315918	-825.1701049804688	785.4013061523438	-68.12592315673828	-704.6076049804688	39.33078002929688	-124.9486541748047	-685.362060546875	415.1655883789062	-60.47426605224609	-522.666015625	86.95216369628906	-33.6966667175293	-534.944580078125	74.85839080810547	-101.1776123046875	-633.9318237304688	48.92007827758789	-39.3157958984375	-717.9428100585938	39.73174285888672	-208.234375	
301	3	-951.8026733398438	1024.348999023438	-262.6065673828125	-898.710205078125	1038.1826171875	-368.1641235351562	-917.4968872070312	1123.097045898438	-333.9017639160156	-687.1118774414062	1288.45166015625	-211.1332702636719	-912.1678466796875	1249.915649414062	-329.46435546875	-838.7235107421875	1505.25	-292.7102355957031	-702.6063842773438	1408.24072265625	-214.6941070556641	-949.7717895507812	1372.430786132812	-272.9737243652344	-803.5469360351562	1472.221069335938	-402.6459655761719	-699.6240234375	1466.021728515625	-402.4074096679688	-676.891357421875	1354.903076171875	-488.2763977050781	-613.4533081054688	1153.555786132812	-502.6497497558594	-693.8695068359375	1118.734008789062	-512.7802124023438	-531.427734375	968.7679443359375	-346.747314453125	-484.9621276855469	946.6177978515625	-415.6890869140625	-560.4981079101562	1061.314819335938	-475.8363037109375	-464.6397399902344	796.4180908203125	-297.8651733398438	-447.6576538085938	875.046142578125	-376.6061706542969	-460.8568420410156	893.6177978515625	-311.6979370117188	-874.9099731445312	1457.943725585938	-118.1421356201172	-928.5697631835938	1392.806518554688	-73.37290954589844	-982.5172119140625	1112.138427734375	-78.48420715332031	-947.0595092773438	1108.466918945312	-166.6296691894531	-843.298828125	906.6769409179688	-11.79194355010986	-925.0925903320312	886.25341796875	-3.978348255157471	-970.2373657226562	1043.462890625	-52.42113876342773	-813.286376953125	715.943603515625	-2.67897891998291	-817.8779296875	788.1416625976562	29.68381500244141	-891.0631713867188	783.2924194335938	28.44854927062988	-806.1983642578125	1663.254272460938	-226.8511505126953	-586.0240478515625	1669.94580078125	-172.2416687011719	-648.7505493164062	1668.668334960938	-94.33506774902344	-687.6289672851562	1662.628295898438	-301.859375	-748.2142944335938	982.8837280273438	-457.0668334960938	-906.2512817382812	983.0678100585938	-125.8592910766602	-804.4915771484375	1026.647583007812	-116.9110717773438	-676.710205078125	1019.181030273438	-368.5696105957031	-786.3388671875	499.2059631347656	-407.3948364257812	-760.7782592773438	642.201416015625	-431.6239318847656	-929.5717163085938	36.74950408935547	-412.3141479492188	-862.164794921875	280.1869506835938	-423.268310546875	-733.2877807617188	44.68929672241211	-306.8529357910156	-810.8344116210938	40.7264404296875	-281.7062683105469	-800.9922485351562	36.18667602539062	-400.16162109375	-1001.8125	44.76854705810547	-376.8390808105469	-714.3348999023438	532.1024169921875	-53.37203598022461	-820.6839599609375	784.4378051757812	-65.69525909423828	-682.208984375	38.16475677490234	-118.7704772949219	-677.2501220703125	414.8582763671875	-57.08899307250977	-504.1135864257812	90.75601959228516	-22.90887832641602	-514.2477416992188	78.27318572998047	-90.55327606201172	-614.0621337890625	49.78561782836914	-31.33901023864746	-693.1600341796875	38.05210494995117	-202.3389434814453	
302	3.01	-945.3863525390625	1023.412780761719	-260.5447692871094	-891.7864990234375	1037.273315429688	-365.8088989257812	-910.7811279296875	1122.10888671875	-331.5911560058594	-681.1209106445312	1287.400268554688	-207.6431274414062	-905.5038452148438	1248.9052734375	-327.0638732910156	-832.4364013671875	1504.219360351562	-289.7119140625	-696.6358032226562	1407.19970703125	-211.1380615234375	-943.5274047851562	1371.29296875	-270.7246704101562	-796.7429809570312	1471.355102539062	-399.5164794921875	-692.8232421875	1465.037353515625	-398.8541870117188	-670.1268920898438	1353.999755859375	-484.9150695800781	-607.65283203125	1152.436767578125	-499.9012451171875	-688.1744384765625	1117.950561523438	-510.4852294921875	-527.1448364257812	968.1929321289062	-342.8304138183594	-480.1900939941406	945.6619262695312	-411.2593688964844	-555.1513671875	1060.1591796875	-472.3428955078125	-461.0717468261719	795.8782958984375	-292.6512145996094	-443.2799682617188	874.1881713867188	-371.560546875	-457.0094604492188	893.0410766601562	-306.8726806640625	-869.5106811523438	1456.679565429688	-115.4063034057617	-923.4362182617188	1391.535034179688	-70.96561431884766	-977.5247802734375	1110.94677734375	-76.60713958740234	-941.0965576171875	1107.159790039062	-164.3469085693359	-840.0841064453125	904.86328125	-8.145299911499023	-922.12548828125	884.8335571289062	-1.510238766670227	-965.8698120117188	1042.25830078125	-50.4520263671875	-811.2606201171875	713.9299926757812	1.316258668899536	-815.9194946289062	786.1467895507812	33.65650939941406	-889.0855712890625	781.7145385742188	31.37726402282715	-800.2507934570312	1662.172241210938	-223.5662384033203	-580.4130249023438	1668.829711914062	-167.9692993164062	-643.397216796875	1667.472290039062	-90.33100891113281	-681.388671875	1661.635864257812	-298.0362243652344	-741.0953979492188	981.7728881835938	-454.2082824707031	-900.4065551757812	981.9395141601562	-123.6780700683594	-798.6664428710938	1025.305053710938	-114.1962661743164	-669.7696533203125	1017.932556152344	-365.3530578613281	-783.4747924804688	498.5411071777344	-405.9436950683594	-756.6222534179688	641.2814331054688	-429.7679748535156	-929.4959106445312	36.84254455566406	-412.1824340820312	-860.833251953125	280.1424255371094	-422.6307067871094	-733.2839965820312	44.63726043701172	-306.8079223632812	-810.8428344726562	40.68213272094727	-281.6918029785156	-800.989990234375	36.1760139465332	-400.1718444824219	-1001.790710449219	45.02343368530273	-376.7445678710938	-709.2965698242188	530.8107299804688	-51.33744430541992	-815.9993286132812	783.3851318359375	-63.21536636352539	-660.658203125	37.35602951049805	-112.6651229858398	-669.3283081054688	414.4765319824219	-53.94186401367188	-486.7702026367188	94.6728515625	-12.03108978271484	-494.6968688964844	81.86696624755859	-79.82498168945312	-595.282470703125	50.86716079711914	-23.42122840881348	-669.1180419921875	36.84096145629883	-196.4693908691406	
303	3.02	-938.9050903320312	1022.462158203125	-258.2996520996094	-884.8277587890625	1036.332763671875	-363.2925415039062	-904.0114135742188	1121.0927734375	-329.1449890136719	-675.0626831054688	1286.319946289062	-204.0583648681641	-898.7770385742188	1247.849365234375	-324.5487060546875	-826.0930786132812	1503.149658203125	-286.625	-690.6078491210938	1406.125610351562	-207.4997406005859	-937.2199096679688	1370.106079101562	-268.3524169921875	-789.887451171875	1470.444946289062	-396.2944946289062	-685.9627075195312	1464.006225585938	-395.2127075195312	-663.3131713867188	1353.041748046875	-481.4722290039062	-601.90869140625	1151.237670898438	-497.1222229003906	-682.5526733398438	1117.1416015625	-508.1528930664062	-523.021728515625	967.405517578125	-338.9869384765625	-475.658203125	944.4750366210938	-406.9195556640625	-549.9707641601562	1058.856201171875	-468.8710021972656	-457.8452758789062	795.0656127929688	-287.6163940429688	-439.1974792480469	873.0505981445312	-366.6619262695312	-453.4230041503906	892.1835327148438	-302.1775817871094	-864.0252685546875	1455.393310546875	-112.5807800292969	-918.2103881835938	1390.261962890625	-68.44817352294922	-972.5115966796875	1109.785034179688	-74.39833831787109	-935.2869873046875	1105.842041015625	-161.7963562011719	-836.7992553710938	903.019775390625	-4.490277767181396	-919.0589599609375	883.441650390625	1.197222232818604	-961.4314575195312	1041.08984375	-48.15483093261719	-809.2682495117188	711.8590698242188	5.144608974456787	-813.854736328125	784.092041015625	37.48335266113281	-886.9854736328125	780.1256103515625	34.39945220947266	-794.2797241210938	1661.041137695312	-220.2087097167969	-574.8077392578125	1667.708374023438	-163.5802917480469	-638.0722045898438	1666.248657226562	-86.21702575683594	-675.125	1660.632934570312	-294.1087036132812	-733.9832763671875	980.6218872070312	-451.2422180175781	-894.4464721679688	980.7994384765625	-121.3332977294922	-792.7324829101562	1023.942932128906	-111.3816604614258	-662.7667846679688	1016.665588378906	-362.0545043945312	-780.383544921875	497.8589782714844	-404.3729248046875	-752.29052734375	640.3411865234375	-427.8126831054688	-929.4114990234375	36.95104217529297	-412.0455627441406	-859.3517456054688	280.1046752929688	-421.9127197265625	-733.2791137695312	44.58699798583984	-306.7652587890625	-810.8419189453125	40.6466178894043	-281.684326171875	-800.9923095703125	36.16477584838867	-400.1852111816406	-1001.733520507812	45.33559799194336	-376.6528015136719	-704.1730346679688	529.36962890625	-49.53228759765625	-811.091796875	782.2395629882812	-60.67945098876953	-640.086669921875	36.8280143737793	-106.6610412597656	-661.57421875	414.0228881835938	-51.02568054199219	-470.7044982910156	98.61051177978516	-1.188607811927795	-476.3885498046875	85.55184936523438	-69.11450958251953	-577.6867065429688	52.09830856323242	-15.63367652893066	-646.0137939453125	36.00744247436523	-190.6570281982422	
